<svg xmlns="http://www.w3.org/2000/svg" viewBox="0 0 32 32">
  <path fill="#25D366" d="M16.001 3C8.821 3 3 8.822 3 16.001c0 2.52.74 4.982 2.142 7.085L3 29l6.095-2.099A12.945 12.945 0 0 0 16.001 29C23.18 29 29 23.179 29 16.001 29 8.822 23.18 3 16.001 3z"/>
  
  <path fill="#FFF" d="M22.52 18.407c-.36-.18-2.13-1.05-2.46-1.17-.33-.12-.57-.18-.81.18-.24.36-.93 1.17-1.14 1.41-.21.24-.42.27-.78.09-.36-.18-1.53-.56-2.91-1.8-1.08-.96-1.8-2.16-2.01-2.52-.21-.36-.02-.55.16-.73.16-.16.36-.42.54-.63.18-.21.24-.36.36-.6.12-.24.06-.45-.03-.63-.09-.18-.81-1.95-1.11-2.67-.29-.7-.59-.6-.81-.61h-.69c-.24 0-.63.09-.96.45-.33.36-1.26 1.23-1.26 3s1.29 3.48 1.47 3.72c.18.24 2.55 3.9 6.18 5.47.86.37 1.53.59 2.05.75.86.27 1.64.23 2.26.14.69-.1 2.13-.87 2.43-1.71.3-.84.3-1.56.21-1.71-.09-.15-.33-.24-.69-.42z"/>
</svg>
